<svg id="Calque_1" data-name="Calque 1" xmlns="http://www.w3.org/2000/svg" viewBox="0 0 600 600"><defs><style>.cls-1{fill:#ff9800;}</style></defs><title>bed</title><path class="cls-1" d="M598.2,402.17a1.8,1.8,0,0,1-1.8-1.8V380.16a1.8,1.8,0,1,1,3.6,0v20.21A1.81,1.81,0,0,1,598.2,402.17Z"/><path class="cls-1" d="M1.8,402.17a1.81,1.81,0,0,1-1.8-1.8v-56A22.46,22.46,0,0,1,22.44,321.9H577.56A22.46,22.46,0,0,1,600,344.34v14.8a1.8,1.8,0,1,1-3.6,0v-14.8a18.85,18.85,0,0,0-18.84-18.83H22.44A18.85,18.85,0,0,0,3.6,344.34v56A1.8,1.8,0,0,1,1.8,402.17Z"/><path class="cls-1" d="M379.37,314.69H22.44A22.45,22.45,0,0,1,0,292.26v-7.38a22.46,22.46,0,0,1,22.44-22.44H126.73a1.81,1.81,0,0,1,0,3.61H22.44A18.85,18.85,0,0,0,3.6,284.88v7.38a18.86,18.86,0,0,0,18.84,18.83H379.37a18.86,18.86,0,0,0,18.83-18.83v-7.38a18.85,18.85,0,0,0-18.83-18.83h-189a1.81,1.81,0,0,1,0-3.61h189a22.46,22.46,0,0,1,22.43,22.44v7.38A22.45,22.45,0,0,1,379.37,314.69Z"/><path class="cls-1" d="M178.38,266.05h-30a1.81,1.81,0,0,1,0-3.61h30a1.81,1.81,0,0,1,0,3.61Z"/><path class="cls-1" d="M577.56,314.69H431.45A22.45,22.45,0,0,1,409,292.26V275.87a22.46,22.46,0,0,1,22.44-22.44H577.56A22.46,22.46,0,0,1,600,275.87v16.39A22.45,22.45,0,0,1,577.56,314.69ZM431.45,257a18.85,18.85,0,0,0-18.84,18.83v16.39a18.86,18.86,0,0,0,18.84,18.83H577.56a18.86,18.86,0,0,0,18.84-18.83V275.87A18.85,18.85,0,0,0,577.56,257Z"/></svg>