<svg id="Calque_1" data-name="Calque 1" xmlns="http://www.w3.org/2000/svg" viewBox="0 0 600 600"><defs><style>.cls-1{fill:#ff9800;}</style></defs><title>camera</title><path class="cls-1" d="M544.86,490.83H55.14A55.19,55.19,0,0,1,0,435.7V190.05a55.19,55.19,0,0,1,55.14-55.13H264.08a3.07,3.07,0,0,1,0,6.14H55.14a49,49,0,0,0-49,49V435.7a49,49,0,0,0,49,49H544.86a49,49,0,0,0,49-49V190.05a49,49,0,0,0-49-49H356.67a3.07,3.07,0,1,1,0-6.14H544.86A55.19,55.19,0,0,1,600,190.05V435.7A55.19,55.19,0,0,1,544.86,490.83Z"/><path class="cls-1" d="M335.92,141.06H301.6a3.07,3.07,0,1,1,0-6.14h34.32a3.07,3.07,0,0,1,0,6.14Z"/><path class="cls-1" d="M103.65,132.07H60.54a11.45,11.45,0,1,1,0-22.9h43.11a11.45,11.45,0,0,1,0,22.9ZM60.54,115.31a5.31,5.31,0,1,0,0,10.62h43.11a5.31,5.31,0,0,0,0-10.62Z"/><path class="cls-1" d="M324.53,436.73A124.49,124.49,0,1,1,427.76,242.64a3.08,3.08,0,1,1-5.1,3.44,117.58,117.58,0,1,0,12,22.77,3.07,3.07,0,0,1,5.72-2.25A124.57,124.57,0,0,1,324.53,436.73Z"/><path class="cls-1" d="M324.53,411.77a99.53,99.53,0,1,1,99.53-99.52A99.64,99.64,0,0,1,324.53,411.77Zm0-192.9a93.38,93.38,0,1,0,93.38,93.38A93.48,93.48,0,0,0,324.53,218.87Z"/><path class="cls-1" d="M501.14,203.91a11.46,11.46,0,1,1,11.46-11.45A11.47,11.47,0,0,1,501.14,203.91Zm0-16.76a5.31,5.31,0,1,0,5.31,5.31A5.31,5.31,0,0,0,501.14,187.15Z"/><path class="cls-1" d="M527.49,203.91a11.46,11.46,0,1,1,11.45-11.45A11.47,11.47,0,0,1,527.49,203.91Zm0-16.76a5.31,5.31,0,1,0,5.3,5.31A5.31,5.31,0,0,0,527.49,187.15Z"/><path class="cls-1" d="M155.13,196.44a3.08,3.08,0,0,1-3.08-3.08v-22a.93.93,0,0,0-.93-.93H56.17a.94.94,0,0,0-.94.93v22a3.07,3.07,0,1,1-6.14,0v-22a7.09,7.09,0,0,1,7.08-7.08h95a7.09,7.09,0,0,1,7.08,7.08v22A3.07,3.07,0,0,1,155.13,196.44Z"/><path class="cls-1" d="M151.12,218.28H56.17a7.09,7.09,0,0,1-7.08-7.08V193.36a3.07,3.07,0,0,1,6.14,0V211.2a.94.94,0,0,0,.94.93h95a.93.93,0,0,0,.93-.93V193.36a3.08,3.08,0,0,1,6.15,0V211.2A7.09,7.09,0,0,1,151.12,218.28Z"/><path class="cls-1" d="M155.13,196.44H114.3a3.08,3.08,0,0,1,0-6.15h40.83a3.08,3.08,0,0,1,0,6.15Z"/><path class="cls-1" d="M80.34,196.44H52.16a3.08,3.08,0,0,1,0-6.15H80.34a3.08,3.08,0,0,1,0,6.15Z"/><path class="cls-1" d="M87.22,196.44a3.08,3.08,0,0,1-2.93-2.14l-.56-1.76-.42,1.61a3.08,3.08,0,0,1-6-1.57l3.12-11.78a3.09,3.09,0,0,1,2.89-2.29,3.14,3.14,0,0,1,3,2.14l3.77,11.78a3.08,3.08,0,0,1-2.93,4Z"/><path class="cls-1" d="M90.18,205.69a3.07,3.07,0,0,1-2.92-2.14l-3-9.25a3.08,3.08,0,0,1,5.57-2.52,3.08,3.08,0,0,1,5.62,2.33l-2.32,9.25a3.07,3.07,0,0,1-2.88,2.33Z"/><path class="cls-1" d="M109.19,196.44a3.07,3.07,0,0,1-3-2.42l-.64-2.94-.54,2.85a3.07,3.07,0,1,1-6-1.14l3.34-17.67a3.07,3.07,0,0,1,3-2.5h0a3.08,3.08,0,0,1,3,2.42l3.86,17.67a3.07,3.07,0,0,1-2.34,3.66A3.7,3.7,0,0,1,109.19,196.44Z"/><path class="cls-1" d="M99.44,209.9a3.07,3.07,0,0,1-3-2.36l-3.23-13.46a3.08,3.08,0,0,1,5.88-1.77,3.07,3.07,0,0,1,5.91,1.62l-2.55,13.47a3.09,3.09,0,0,1-2.95,2.5Z"/><path class="cls-1" d="M92.5,196.44a3.27,3.27,0,0,1-.75-.09,3.07,3.07,0,0,1-2.23-3.73l1.89-7.57a3.07,3.07,0,0,1,3-2.33h0a3.07,3.07,0,0,1,3,2.35l1.82,7.58a3.07,3.07,0,0,1-4.85,3.16A3,3,0,0,1,92.5,196.44Z"/><path class="cls-1" d="M111.22,205.69h-.17a3.1,3.1,0,0,1-2.84-2.42l-2-9.25a3.08,3.08,0,0,1,5.56-2.37,3.08,3.08,0,0,1,5.47,2.69l-3.09,9.25A3.07,3.07,0,0,1,111.22,205.69Z"/></svg>