<svg id="Calque_1" data-name="Calque 1" xmlns="http://www.w3.org/2000/svg" viewBox="0 0 600 600"><defs><style>.cls-1{fill:#ff9800;}.cls-2{fill:#fff;}</style></defs><title>default-picture</title><rect class="cls-1" width="600" height="600"/><path class="cls-2" d="M498.88,455H101.12a44.84,44.84,0,0,1-44.79-44.78V210.7a44.84,44.84,0,0,1,44.79-44.78H270.83a2.5,2.5,0,0,1,0,5H101.12A39.84,39.84,0,0,0,61.33,210.7V410.22A39.84,39.84,0,0,0,101.12,450H498.88a39.84,39.84,0,0,0,39.79-39.79V210.7a39.84,39.84,0,0,0-39.79-39.79H346a2.5,2.5,0,1,1,0-5H498.88a44.84,44.84,0,0,1,44.79,44.78V410.22A44.84,44.84,0,0,1,498.88,455Z"/><path class="cls-2" d="M329.17,170.91H301.3a2.5,2.5,0,1,1,0-5h27.87a2.5,2.5,0,1,1,0,5Z"/><path class="cls-2" d="M140.52,163.61h-35a9.31,9.31,0,1,1,0-18.61h35a9.31,9.31,0,0,1,0,18.61Zm-35-13.62a4.31,4.31,0,1,0,0,8.62h35a4.31,4.31,0,1,0,0-8.62Z"/><path class="cls-2" d="M319.93,411.06a101.11,101.11,0,1,1,83.84-157.65,2.5,2.5,0,1,1-4.14,2.8,95.53,95.53,0,1,0,9.75,18.49,2.5,2.5,0,0,1,4.65-1.83,101.18,101.18,0,0,1-94.1,138.19Z"/><path class="cls-2" d="M319.93,390.78A80.84,80.84,0,1,1,400.76,310,80.93,80.93,0,0,1,319.93,390.78Zm0-156.68A75.85,75.85,0,1,0,395.77,310,75.94,75.94,0,0,0,319.93,234.1Z"/><path class="cls-2" d="M463.37,222a9.31,9.31,0,1,1,9.31-9.31A9.32,9.32,0,0,1,463.37,222Zm0-13.62a4.31,4.31,0,1,0,4.31,4.31A4.32,4.32,0,0,0,463.37,208.34Z"/><path class="cls-2" d="M484.77,222a9.31,9.31,0,1,1,9.3-9.31A9.33,9.33,0,0,1,484.77,222Zm0-13.62a4.31,4.31,0,1,0,4.31,4.31A4.31,4.31,0,0,0,484.77,208.34Z"/><path class="cls-2" d="M182.33,215.88a2.48,2.48,0,0,1-2.49-2.49v-17.9a.77.77,0,0,0-.77-.76H102a.76.76,0,0,0-.76.76v17.9a2.5,2.5,0,0,1-5,0v-17.9a5.76,5.76,0,0,1,5.76-5.76h77.11a5.76,5.76,0,0,1,5.76,5.76v17.9A2.49,2.49,0,0,1,182.33,215.88Z"/><path class="cls-2" d="M179.07,233.62H102a5.76,5.76,0,0,1-5.76-5.75V213.39a2.5,2.5,0,0,1,5,0v14.48a.76.76,0,0,0,.76.76h77.11a.77.77,0,0,0,.77-.76V213.39a2.5,2.5,0,1,1,5,0v14.48A5.76,5.76,0,0,1,179.07,233.62Z"/><path class="cls-2" d="M182.33,215.88H149.17a2.5,2.5,0,1,1,0-5h33.16a2.5,2.5,0,1,1,0,5Z"/><path class="cls-2" d="M121.58,215.88H98.7a2.5,2.5,0,1,1,0-5h22.88a2.5,2.5,0,1,1,0,5Z"/><path class="cls-2" d="M127.18,215.88a2.49,2.49,0,0,1-2.38-1.73l-.46-1.43L124,214a2.5,2.5,0,0,1-4.83-1.28l2.53-9.57a2.5,2.5,0,0,1,2.35-1.86,2.55,2.55,0,0,1,2.44,1.74l3.06,9.57a2.49,2.49,0,0,1-1.61,3.14A2.54,2.54,0,0,1,127.18,215.88Z"/><path class="cls-2" d="M129.58,223.4a2.49,2.49,0,0,1-2.37-1.74l-2.41-7.51a2.5,2.5,0,0,1,4.52-2.05,2.5,2.5,0,0,1,4.56,1.89L132,221.51a2.5,2.5,0,0,1-2.34,1.89Z"/><path class="cls-2" d="M145,215.88a2.5,2.5,0,0,1-2.44-2l-.52-2.39-.44,2.32a2.49,2.49,0,1,1-4.9-.93l2.71-14.35a2.5,2.5,0,0,1,2.42-2h0a2.5,2.5,0,0,1,2.44,2l3.14,14.35a2.51,2.51,0,0,1-1.9,3A2.47,2.47,0,0,1,145,215.88Z"/><path class="cls-2" d="M137.1,226.82a2.5,2.5,0,0,1-2.43-1.92L132.05,214a2.5,2.5,0,0,1,4.77-1.44,2.53,2.53,0,0,1,2.81-1.6,2.5,2.5,0,0,1,2,2.92l-2.07,10.94a2.51,2.51,0,0,1-2.39,2Z"/><path class="cls-2" d="M131.46,215.88a2.46,2.46,0,0,1-.6-.07,2.5,2.5,0,0,1-1.82-3l1.54-6.15a2.48,2.48,0,0,1,2.42-1.89h0a2.49,2.49,0,0,1,2.42,1.91l1.47,6.15a2.5,2.5,0,0,1-3.93,2.58A2.51,2.51,0,0,1,131.46,215.88Z"/><path class="cls-2" d="M146.67,223.4h-.14a2.5,2.5,0,0,1-2.3-2l-1.65-7.52A2.5,2.5,0,0,1,147.1,212a2.48,2.48,0,0,1,2.86-1,2.5,2.5,0,0,1,1.58,3.16L149,221.69A2.48,2.48,0,0,1,146.67,223.4Z"/></svg>
