<svg id="Calque_1" data-name="Calque 1" xmlns="http://www.w3.org/2000/svg" viewBox="0 0 600 600"><defs><style>.cls-1{fill:#ff9800;}</style></defs><title>location</title><path class="cls-1" d="M253.2,467.91l-13.36-31.86a5.72,5.72,0,0,0-10.55,4.43l13.36,31.85a5.72,5.72,0,0,0,5.28,3.51,5.57,5.57,0,0,0,2.21-.45A5.71,5.71,0,0,0,253.2,467.91Z"/><path class="cls-1" d="M467.22,210.08v0a172.84,172.84,0,0,0,4.38-38.45C471.6,77,394.62,0,300,0S128.4,77,128.4,171.6a172.84,172.84,0,0,0,4.38,38.45v0a.94.94,0,0,1,0,.16,3.66,3.66,0,0,0,.15.43,4.13,4.13,0,0,0,.15.5l21.67,51.67,62.59,149.24a5.71,5.71,0,0,0,5.28,3.5,5.55,5.55,0,0,0,2.21-.44,5.73,5.73,0,0,0,3.06-7.49L165.34,258.42l-21.47-51.19a161.29,161.29,0,0,1-4-35.63c0-88.31,71.85-160.16,160.16-160.16S460.16,83.29,460.16,171.6a161.29,161.29,0,0,1-4,35.63l-21.47,51.19L300,579.49l-39.61-94.44a5.72,5.72,0,0,0-10.55,4.43l44.88,107a5.73,5.73,0,0,0,10.56,0L445.21,262.84l21.66-51.64h0v0l0-.09a5.88,5.88,0,0,0,.27-.84A.94.94,0,0,1,467.22,210.08Z"/><path class="cls-1" d="M300,97.24a74.77,74.77,0,0,1,21.13,3,5.72,5.72,0,0,0,3.25-11,85.88,85.88,0,1,0,25.5,12.47,5.72,5.72,0,0,0-6.66,9.3A74.37,74.37,0,1,1,300,97.24Z"/></svg>