<svg id="Calque_1" data-name="Calque 1" xmlns="http://www.w3.org/2000/svg" viewBox="0 0 600 600"><defs><style>.cls-1{fill:#ff9800;}</style></defs><title>people</title><path class="cls-1" d="M299.91,281.48c-77.61,0-140.74-63.14-140.74-140.74S222.3,0,299.91,0a140.25,140.25,0,0,1,75.52,22,5,5,0,1,1-5.32,8.36,130.45,130.45,0,0,0-70.2-20.41c-72.14,0-130.83,58.69-130.83,130.83s58.69,130.83,130.83,130.83,130.83-58.69,130.83-130.83a130.15,130.15,0,0,0-22.38-73.2A5,5,0,0,1,416.57,62a140,140,0,0,1,24.08,78.75C440.65,218.34,377.52,281.48,299.91,281.48Z"/><path class="cls-1" d="M59.78,429.83a5,5,0,0,1-5-5V396.4a5,5,0,0,1,9.91,0v28.47A5,5,0,0,1,59.78,429.83Z"/><path class="cls-1" d="M444.11,599.56H155.71A101,101,0,0,1,54.82,498.67V479a5,5,0,1,1,9.91,0v19.68a91.09,91.09,0,0,0,91,91h288.4a91.09,91.09,0,0,0,91-91V351.08a91.09,91.09,0,0,0-91-91H411.76a160.84,160.84,0,0,1-223.7,0H155.71a91.09,91.09,0,0,0-91,91v15.59a5,5,0,1,1-9.91,0V351.08A101,101,0,0,1,155.71,250.19h34.37a4.94,4.94,0,0,1,3.49,1.44,150.94,150.94,0,0,0,212.68,0,4.94,4.94,0,0,1,3.49-1.44h34.37A101,101,0,0,1,545,351.08V498.67A101,101,0,0,1,444.11,599.56Z"/></svg>